<svg xmlns="http://www.w3.org/2000/svg" viewBox="0 0 217 122.19"><title>Logo</title><path d="M188.23,80h-.75V77h-.87v-.61h2.48V77h-.86Z" style="fill:#fff"/><path d="M190.25,80h-.75V76.38h.85l1.09,2.21,1.09-2.21h.85V80h-.75V77.75l-1.19,2.38-1.18-2.38Z" style="fill:#fff"/><path d="M172.29,42.61a1.94,1.94,0,0,1,2-2,2,2,0,0,1,2,2V78.79a2,2,0,0,1-4,0Z" style="fill:#fff"/><path d="M174.3,29.19A5.24,5.24,0,0,1,169.07,24a5.23,5.23,0,0,1,10.46,0A5.24,5.24,0,0,1,174.3,29.19Z" style="fill:#fff"/><path d="M103.53,39.84c-11.23,0-20.36,9.52-20.36,20.83s9.13,20.82,20.36,20.82S123.89,72,123.89,60.67,114.85,39.84,103.53,39.84Zm0,37.81c-8.68,0-16.07-7.73-16.07-17s7.39-17,16.07-17,16.13,7.73,16.13,17S112.21,77.65,103.53,77.65Z" style="fill:#fff"/><path d="M71.5,40.75a1.92,1.92,0,0,0-2,1.88V64.4c0,8.62-6.07,13.25-12.46,13.25-9.19,0-12.37-6.28-12.37-13.25V42.63a2,2,0,0,0-2-1.88,1.91,1.91,0,0,0-2,1.88V64.4c0,10.33,6.06,17.08,15.46,17.08,7,0,11.44-3.47,13.37-6.71h0v3.28A15,15,0,0,1,47.91,91.4a2.12,2.12,0,0,0-2.54,1,2.27,2.27,0,0,0,.79,2.82,14.83,14.83,0,0,0,7.29,1.68c14.62,0,20.08-10.43,20.08-18.72V42.71A1.94,1.94,0,0,0,71.5,40.75Z" style="fill:#fff"/><path d="M160.5,77.62,148.06,60.73l12.18-16.8a2.09,2.09,0,0,0-.43-2.81,2.15,2.15,0,0,0-2.91.33L145.6,57.32,133.91,41.53a2,2,0,0,0-2.75-.44,2.15,2.15,0,0,0-.46,2.81l12.24,16.75s-11.7,16.18-12.33,17.08a2.21,2.21,0,0,0,.69,2.9,2.13,2.13,0,0,0,2.9-.69l11.22-15.88s11.32,15.48,11.79,16.09a1.93,1.93,0,0,0,1.61.77,2.16,2.16,0,0,0,2.08-2.06A2.5,2.5,0,0,0,160.5,77.62Z" style="fill:#fff"/></svg>